<?xml version="1.0" encoding="UTF-8" standalone="no"?>
<!-- Created with Inkscape (http://www.inkscape.org/) -->

<svg
   xmlns:dc="http://purl.org/dc/elements/1.1/"
   xmlns:cc="http://creativecommons.org/ns#"
   xmlns:rdf="http://www.w3.org/1999/02/22-rdf-syntax-ns#"
   xmlns:svg="http://www.w3.org/2000/svg"
   xmlns="http://www.w3.org/2000/svg"
   xmlns:sodipodi="http://sodipodi.sourceforge.net/DTD/sodipodi-0.dtd"
   xmlns:inkscape="http://www.inkscape.org/namespaces/inkscape"
   width="77.016075mm"
   height="25.650381mm"
   viewBox="0 0 272.89159 90.887174"
   id="svg2"
   version="1.1"
   inkscape:version="0.91 r13725"
   style="enable-background:new"
   sodipodi:docname="TDH-white-vector-justtext-nofont.svg">
  <defs
     id="defs4" />
  <sodipodi:namedview
     id="base"
     pagecolor="#ffffff"
     bordercolor="#666666"
     borderopacity="1.0"
     inkscape:pageopacity="0.0"
     inkscape:pageshadow="2"
     inkscape:zoom="1.1811523"
     inkscape:cx="260.76728"
     inkscape:cy="26.574567"
     inkscape:document-units="px"
     inkscape:current-layer="text3545"
     showgrid="false"
     fit-margin-top="5"
     fit-margin-left="5"
     fit-margin-right="5"
     fit-margin-bottom="5"
     inkscape:window-width="1407"
     inkscape:window-height="879"
     inkscape:window-x="497"
     inkscape:window-y="258"
     inkscape:window-maximized="0" />
  <metadata
     id="metadata7">
    <rdf:RDF>
      <cc:Work
         rdf:about="">
        <dc:format>image/svg+xml</dc:format>
        <dc:type
           rdf:resource="http://purl.org/dc/dcmitype/StillImage" />
        <dc:title></dc:title>
      </cc:Work>
    </rdf:RDF>
  </metadata>
  <g
     inkscape:groupmode="layer"
     id="layer2"
     inkscape:label="Layer 2"
     style="display:inline"
     transform="translate(-330.18108,-307.73464)">
    <g
       style="font-style:normal;font-weight:normal;font-size:40px;line-height:125%;font-family:sans-serif;letter-spacing:0px;word-spacing:0px;fill:#000000;fill-opacity:1;stroke:none;stroke-width:1px;stroke-linecap:butt;stroke-linejoin:miter;stroke-opacity:1"
       id="text3545">
      <path
         d="m 354.819,356.71826 0,-1.80176 q 2.63672,-0.0879 3.12012,-0.35156 0.50537,-0.26367 0.68115,-0.8789 0.2417,-0.94483 0.2417,-5.69092 l 0,-13.16162 q 0,-5.3833 -0.0659,-6.02051 l -3.14209,0 q -2.37305,0 -4.1748,0.15381 -0.7251,0.0659 -0.83496,0.17578 -0.15381,0.13183 -0.26368,0.76904 -0.28564,1.53809 -0.32959,3.44971 l -1.82373,0 q -0.0879,-4.5044 -0.10986,-5.07569 -0.0659,-0.96679 -0.21973,-2.0874 l 0.19776,-0.21972 q 1.03271,0.10986 2.19726,0.1538 1.88965,0.0659 7.27295,0.0659 l 8.87696,0 q 5.5371,0 7.40478,-0.0659 1.01074,-0.0439 2.04346,-0.1538 l 0.21972,0.21972 q -0.19775,1.34033 -0.2417,2.35108 -0.022,0.17578 -0.0879,4.81201 l -1.82373,0 q -0.0439,-1.71387 -0.28564,-3.27393 -0.13184,-0.79101 -0.28565,-0.94482 -0.13183,-0.10987 -0.70312,-0.15381 -1.80176,-0.17578 -4.32861,-0.17578 l -3.14209,0 q -0.0659,0.76904 -0.0659,6.02051 l 0,13.16162 q 0,4.74609 0.2417,5.71289 0.15381,0.57129 0.65918,0.85693 0.50537,0.26367 3.14209,0.35156 l 0,1.80176 q -4.2627,-0.19775 -7.18506,-0.19775 -3.12012,0 -7.18506,0.19775 z"
         style="font-style:normal;font-variant:normal;font-weight:bold;font-stretch:normal;font-size:45px;line-height:125%;font-family:Palatino;-inkscape-font-specification:'Palatino, Bold';text-align:start;writing-mode:lr-tb;text-anchor:start;fill:#ffffff;fill-opacity:1"
         id="path3704" />
      <path
         d="m 378.6813,327.80225 0,-1.80176 q 0.50538,0 3.51563,0.0879 1.47217,0.0439 4.1748,0.0439 2.30713,0 3.95508,-0.0879 2.72461,-0.10986 4.5044,-0.10986 3.4497,0 5.16357,0.50537 1.71387,0.4834 2.92236,2.04346 1.2085,1.56006 1.2085,3.80127 0,2.65869 -1.64795,4.83398 -1.64795,2.1753 -5.07568,3.44971 0.54931,0.98877 1.25244,2.02148 0.70312,1.03272 0.81299,1.25245 0.13183,0.21972 0.26367,0.41748 l 3.40576,5.11962 q 1.36231,2.04346 1.47217,2.19727 1.64795,2.19727 2.02148,2.59277 0.37354,0.39551 0.7251,0.54932 0.35156,0.15381 1.38428,0.17578 l 0,1.82373 q -3.38379,-0.0879 -4.8999,-0.0879 -1.75782,0 -3.49366,0.0879 -0.10986,-0.4834 -0.52734,-1.25244 l -4.70215,-7.75635 q -2.02148,-3.33984 -3.42773,-5.25146 -0.70313,-0.9668 -1.36231,-1.4502 l 0.2417,-0.7251 q 2.63672,0.0879 3.97705,-0.52734 1.34033,-0.63721 2.26319,-2.24121 0.92285,-1.62598 0.92285,-3.62549 0,-2.02148 -0.9668,-3.36181 -0.9668,-1.34034 -2.39502,-1.86768 -0.92285,-0.32959 -3.2959,-0.32959 -1.05468,0 -2.0874,0.17578 -0.0659,0.79102 -0.13184,3.55957 -0.13183,6.21826 -0.13183,8.30567 0,3.29589 0.0659,6.9873 0.0879,4.52637 0.13183,5.1416 0.0659,1.23047 0.2417,1.60401 0.0879,0.17578 0.28565,0.32959 0.19775,0.13183 0.6372,0.21972 0.43946,0.0879 2.54883,0.13184 l 0,1.93359 q -3.75732,-0.13183 -7.60254,-0.13183 -3.42773,0 -6.3501,0.13183 l 0,-1.93359 q 2.50489,-0.0879 2.96631,-0.2417 0.26368,-0.0659 0.37354,-0.21973 0.13183,-0.15381 0.19775,-0.61523 0.15381,-0.85694 0.21973,-2.59278 l 0.17578,-6.41601 0,-8.15186 -0.0879,-4.63623 q -0.0439,-2.74658 -0.26367,-3.2959 -0.10987,-0.24169 -0.32959,-0.37353 -0.52735,-0.26367 -3.25196,-0.43945 z"
         style="font-style:normal;font-variant:normal;font-weight:bold;font-stretch:normal;font-size:45px;line-height:125%;font-family:Palatino;-inkscape-font-specification:'Palatino, Bold';text-align:start;writing-mode:lr-tb;text-anchor:start;fill:#ffffff;fill-opacity:1"
         id="path3706" />
      <path
         d="m 411.68423,341.71094 q 0,-4.021 1.2085,-7.00928 1.23047,-2.98828 3.49365,-5.07568 2.26319,-2.08741 4.92188,-3.01026 3.40576,-1.16455 7.42676,-1.16455 3.99902,0 7.25097,1.12061 2.41699,0.85693 4.2627,2.48291 1.86767,1.604 2.83447,3.2959 0.9668,1.69189 1.4502,3.71337 0.50537,2.02149 0.50537,4.46045 0,4.13086 -1.42823,7.66846 -1.05468,2.63672 -3.09814,4.68018 -2.02148,2.04345 -4.61426,3.14209 -3.55957,1.47216 -8.12988,1.47216 -4.94385,0 -8.50342,-1.77978 -3.5376,-1.80176 -5.55908,-5.29541 -2.02149,-3.49365 -2.02149,-8.70117 z m 6.76758,-1.29639 q 0,5.11963 1.40625,8.48145 1.40625,3.33984 3.60352,4.72412 2.19726,1.38427 5.18555,1.38427 2.76855,0 4.94384,-1.31835 2.19727,-1.31836 3.42774,-4.46045 1.25244,-3.14209 1.25244,-7.62452 0,-3.07617 -0.68115,-5.625 -0.65918,-2.54882 -1.91162,-4.32861 -1.25245,-1.80176 -2.96631,-2.74658 -1.6919,-0.94483 -4.5044,-0.94483 -3.20801,0 -5.47119,1.51612 -2.24121,1.49414 -3.27393,4.43847 -1.01074,2.94434 -1.01074,6.50391 z"
         style="font-style:normal;font-variant:normal;font-weight:bold;font-stretch:normal;font-size:45px;line-height:125%;font-family:Palatino;-inkscape-font-specification:'Palatino, Bold';text-align:start;writing-mode:lr-tb;text-anchor:start;fill:#ffffff;fill-opacity:1"
         id="path3708" />
      <path
         d="m 448.24673,327.80225 0,-1.82373 6.50391,0.1538 9.82178,-0.19775 q 2.87842,0 4.54834,0.59326 1.66992,0.59326 2.85644,2.15332 1.2085,1.56006 1.2085,4.04297 0,2.48291 -1.16455,4.61426 -1.14258,2.13135 -3.60352,3.51562 -2.43896,1.36231 -5.22949,1.36231 -0.70312,0 -1.38428,-0.0659 -0.65918,-0.0879 -1.31836,-0.2417 -0.21972,-0.61523 -0.79101,-1.56006 l 0.46142,-0.4834 q 0.4834,0.15381 0.90088,0.2417 0.43946,0.0659 0.79102,0.0659 2.13135,0 3.51562,-1.49414 1.38428,-1.51611 1.38428,-4.39453 0,-3.01025 -1.45019,-4.52637 -1.4502,-1.51611 -4.04297,-1.51611 -1.23047,0 -2.74658,0.28564 -0.10987,1.36231 -0.13184,3.99903 l -0.0659,4.30664 0,8.32763 q 0,3.07618 0.0879,6.37207 0.0659,1.91163 0.2417,2.417 0.0879,0.21972 0.28565,0.3955 0.21972,0.15381 0.76904,0.2417 l 2.96631,0.19776 0,1.93359 q -5.625,-0.13183 -8.45948,-0.13183 -3.12011,0 -5.95459,0.13183 l 0,-1.93359 q 2.43897,-0.0439 3.07618,-0.37354 0.19775,-0.10986 0.30761,-0.32959 0.15381,-0.30761 0.2417,-1.604 0.2417,-3.51563 0.2417,-7.82227 l 0,-7.75634 -0.0879,-4.13086 q -0.0439,-2.6587 -0.10986,-3.31787 -0.0439,-0.65918 -0.19776,-0.94483 -0.0879,-0.17578 -0.30761,-0.30762 -0.19776,-0.13183 -0.74707,-0.2417 l -2.417,-0.1538 z"
         style="font-style:normal;font-variant:normal;font-weight:bold;font-stretch:normal;font-size:45px;line-height:125%;font-family:Palatino;-inkscape-font-specification:'Palatino, Bold';text-align:start;writing-mode:lr-tb;text-anchor:start;fill:#ffffff;fill-opacity:1"
         id="path3710" />
      <path
         d="m 490.43423,325.97852 0,1.93359 q -2.21923,0.0659 -2.63671,0.17578 -0.41748,0.0879 -0.59327,0.2417 -0.17578,0.13184 -0.2417,0.35156 -0.1538,0.37354 -0.21972,1.42822 -0.044,0.57129 -0.0659,2.15333 -0.0879,5.40527 -0.0879,5.82275 l 0,8.85498 0.0659,4.021 q 0,2.26318 0.21972,2.94433 0.0879,0.30762 0.28565,0.4834 0.21973,0.15381 0.65918,0.26367 0.46142,0.0879 2.61474,0.13184 l 0,1.93359 q -3.58154,-0.13183 -7.64648,-0.13183 -3.5376,0 -6.30615,0.13183 l 0,-1.93359 q 2.28515,-0.0879 2.63672,-0.15381 0.46142,-0.0879 0.61523,-0.2417 0.17578,-0.15381 0.21973,-0.35156 0.0659,-0.26367 0.17578,-2.06543 0.17578,-2.63672 0.17578,-4.87793 l 0,-9.18457 q 0,-4.37256 -0.0439,-5.625 -0.10986,-2.79053 -0.26367,-3.49365 -0.0659,-0.28565 -0.21972,-0.43946 -0.13184,-0.15381 -0.52735,-0.2417 Q 478.87662,328 476.4816,327.91211 l 0,-1.93359 q 2.76855,0.13183 6.3501,0.13183 4.02099,0 7.60253,-0.13183 z"
         style="font-style:normal;font-variant:normal;font-weight:bold;font-stretch:normal;font-size:45px;line-height:125%;font-family:Palatino;-inkscape-font-specification:'Palatino, Bold';text-align:start;writing-mode:lr-tb;text-anchor:start;fill:#ffffff;fill-opacity:1"
         id="path3712" />
      <path
         d="m 523.19547,352.74121 -1.01075,2.21924 q -2.74658,1.45019 -4.94384,1.97754 -2.1753,0.54931 -5.44922,0.54931 -4.65821,0 -8.23975,-1.47216 -2.8125,-1.18653 -4.76807,-3.14209 -1.95556,-1.95557 -3.01025,-4.24073 -1.604,-3.4497 -1.604,-7.49267 0,-6.92139 4.72412,-11.29395 4.74609,-4.39453 13.38134,-4.39453 2.96631,0 5.31739,0.43945 2.37304,0.43946 5.49316,1.56006 l 0.10987,0.28565 q -0.35157,1.03271 -0.54932,2.59277 -0.32959,2.48291 -0.41748,4.59229 l -1.71387,0 q -0.0439,-2.417 -0.21973,-3.86719 -1.47216,-1.53809 -3.31787,-2.28516 Q 515.15347,328 512.29703,328 q -5.16358,0 -8.26172,3.27393 -3.09815,3.25195 -3.09815,9.09668 0,3.53759 1.03272,6.17431 1.05469,2.63672 2.79053,4.37256 1.73584,1.71387 3.49365,2.50488 2.39502,1.05469 5.80078,1.05469 2.24121,0 4.24072,-0.50537 1.99951,-0.50537 4.35059,-1.73584 l 0.54932,0.50537 z"
         style="font-style:normal;font-variant:normal;font-weight:bold;font-stretch:normal;font-size:45px;line-height:125%;font-family:Palatino;-inkscape-font-specification:'Palatino, Bold';text-align:start;writing-mode:lr-tb;text-anchor:start;fill:#ffffff;fill-opacity:1"
         id="path3714" />
      <path
         d="m 525.43668,356.71826 0,-1.82373 q 1.77978,-0.13183 2.10937,-0.21973 0.35156,-0.10986 0.59326,-0.30761 0.2417,-0.21973 0.4834,-0.65918 0.26367,-0.46143 1.51611,-3.36182 0.57129,-1.3623 2.19727,-5.3833 l 5.73486,-14.15039 1.9336,-4.98779 3.12011,0 9.82178,22.93945 1.36231,3.01025 0.8789,2.02149 q 0.21973,0.39551 0.41748,0.57129 0.19776,0.17578 0.43946,0.26367 0.26367,0.0879 1.29638,0.15381 0.32959,0.0439 0.9668,0.10986 l 0,1.82373 -6.1084,-0.13183 -7.7124,0.13183 0,-1.82373 q 2.65869,-0.10986 2.98828,-0.28564 0.35156,-0.19776 0.35156,-0.63721 0,-0.54932 -0.50537,-1.80176 l -1.88965,-4.83398 -11.29394,0 -0.9668,2.63672 q -1.09863,3.03222 -1.09863,3.77929 0,0.52735 0.35156,0.74707 0.52734,0.30762 3.14209,0.39551 l 0,1.82373 -5.07568,-0.13183 -5.05371,0.13183 z m 9.71191,-11.88721 q 2.06543,0.0659 4.68018,0.0659 2.52685,0 4.52636,-0.0659 l -4.70215,-11.33789 -4.50439,11.33789 z"
         style="font-style:normal;font-variant:normal;font-weight:bold;font-stretch:normal;font-size:45px;line-height:125%;font-family:Palatino;-inkscape-font-specification:'Palatino, Bold';text-align:start;writing-mode:lr-tb;text-anchor:start;fill:#ffffff;fill-opacity:1"
         id="path3716" />
      <path
         d="m 562.35074,356.71826 0,-1.1206 q 0.57129,-0.2417 1.604,-0.85694 0.46143,-0.26367 0.59326,-0.43945 0.0879,-0.10986 0.10987,-0.2417 0.10986,-0.54932 0.19775,-3.91113 0.0879,-3.38379 0.0879,-8.10791 0,-6.94336 -0.0439,-8.56934 -0.0879,-4.13086 -0.28565,-4.72412 -0.0879,-0.26367 -0.32959,-0.39551 -0.50537,-0.32959 -3.36181,-0.43945 l 0,-1.93359 q 2.79052,0.13183 6.37207,0.13183 3.99902,0 7.58056,-0.13183 l 0,1.93359 q -2.48291,0.10986 -3.03222,0.39551 -0.2417,0.13183 -0.35157,0.43945 -0.10986,0.28564 -0.21972,2.70264 -0.0879,2.41699 -0.0879,6.1084 0,0.3955 0.022,6.35009 0.022,3.14209 0.022,6.24024 0.022,3.07617 0.0439,3.73535 3.03222,0.13183 4.13086,0.13183 3.33984,0 5.82275,-0.3955 0.90088,-0.13184 1.07666,-0.28565 0.17578,-0.15381 0.37354,-0.81299 0.43945,-1.66992 0.85693,-3.82324 l 1.82373,0 q -0.0659,0.61524 -0.0659,0.7251 l -0.54931,4.43848 q -0.17579,2.0874 -0.19776,2.50488 -0.63721,0.17578 -1.27441,0.2417 -1.34033,0.10986 -4.15283,0.10986 -0.39551,0 -5.16358,-0.10986 -3.62549,-0.0879 -5.05371,-0.0879 -2.15332,0 -6.54785,0.19775 z"
         style="font-style:normal;font-variant:normal;font-weight:bold;font-stretch:normal;font-size:45px;line-height:125%;font-family:Palatino;-inkscape-font-specification:'Palatino, Bold';text-align:start;writing-mode:lr-tb;text-anchor:start;fill:#ffffff;fill-opacity:1"
         id="path3718" />
    </g>
    <g
       style="font-style:normal;font-weight:normal;font-size:40px;line-height:125%;font-family:sans-serif;letter-spacing:10px;word-spacing:0px;fill:#ffffff;fill-opacity:1;stroke:none;stroke-width:1px;stroke-linecap:butt;stroke-linejoin:miter;stroke-opacity:1"
       id="text3612">
      <path
         d="m 355.28433,380.39258 0,-0.70313 q 0.11719,-0.0732 0.41016,-0.23437 0.55664,-0.30762 1.02539,-0.64453 0.16113,-1.96289 0.16113,-6.37207 l 0,-2.40235 q 0,-1.93359 -0.0732,-5.66894 -0.0439,-2.06543 -0.19043,-2.63672 -0.0439,-0.13184 -0.11719,-0.20508 -0.11718,-0.11719 -0.36621,-0.17578 -0.24902,-0.0586 -1.8457,-0.26367 l 0,-1.18653 5.31738,0.0879 q 0.9375,0 3.53027,-0.0732 1.875,-0.0439 3.00293,-0.0439 2.59278,0 4.14551,0.32226 1.56739,0.30762 2.72461,1.01074 1.15723,0.68848 1.94824,1.64063 0.80567,0.95215 1.21582,2.05078 0.68848,1.8457 0.68848,4.04297 0,2.79785 -1.02539,4.99512 -1.02539,2.19726 -2.82715,3.67675 -1.78711,1.4795 -3.88183,2.13868 -2.09473,0.64453 -5.05372,0.64453 l -4.35058,-0.0879 -4.43848,0.0879 z m 5.85938,-1.78711 q 1.3623,0.20508 2.60742,0.20508 1.94824,0 3.45703,-0.41016 1.11328,-0.30762 1.94824,-0.89355 0.83496,-0.58594 1.59668,-1.72852 0.77637,-1.14258 1.20117,-2.72461 0.42481,-1.58203 0.42481,-3.41309 0,-1.66992 -0.42481,-3.22265 -0.4248,-1.56738 -1.3916,-2.73926 -0.96679,-1.17187 -2.44629,-1.69922 -1.47949,-0.52734 -4.48242,-0.52734 -1.12793,0 -2.49023,0.19043 -0.14649,2.08008 -0.14649,7.83691 l 0,3.36914 q 0,4.36524 0.14649,5.75684 z"
         style="font-style:normal;font-variant:normal;font-weight:bold;font-stretch:normal;font-size:30px;line-height:125%;font-family:Palatino;-inkscape-font-specification:'Palatino, Bold';text-align:start;letter-spacing:10px;writing-mode:lr-tb;text-anchor:start;fill:#ffffff;fill-opacity:1"
         id="path3721" />
      <path
         d="m 389.10269,380.39258 0,-1.21582 q 1.18653,-0.0879 1.40625,-0.14649 0.23438,-0.0732 0.39551,-0.20507 0.16113,-0.14649 0.32227,-0.43946 0.17578,-0.30762 1.01074,-2.24121 0.38086,-0.9082 1.46484,-3.58887 l 3.82324,-9.43359 1.28907,-3.3252 2.08007,0 6.54786,15.29297 0.9082,2.00684 0.58594,1.34766 q 0.14648,0.26367 0.27832,0.38086 0.13183,0.11718 0.29297,0.17578 0.17578,0.0586 0.86425,0.10254 0.21973,0.0293 0.64453,0.0732 l 0,1.21582 -4.07226,-0.0879 -5.1416,0.0879 0,-1.21582 q 1.77246,-0.0732 1.99218,-0.19043 0.23438,-0.13184 0.23438,-0.42481 0,-0.36621 -0.33691,-1.20117 l -1.25977,-3.22265 -7.5293,0 -0.64453,1.75781 q -0.73242,2.02148 -0.73242,2.51953 0,0.35156 0.23437,0.49805 0.35157,0.20507 2.09473,0.26367 l 0,1.21582 -3.38379,-0.0879 -3.36914,0.0879 z m 6.47461,-7.92481 q 1.37695,0.044 3.12012,0.044 1.68457,0 3.01758,-0.044 l -3.13477,-7.55859 -3.00293,7.55859 z"
         style="font-style:normal;font-variant:normal;font-weight:bold;font-stretch:normal;font-size:30px;line-height:125%;font-family:Palatino;-inkscape-font-specification:'Palatino, Bold';text-align:start;letter-spacing:10px;writing-mode:lr-tb;text-anchor:start;fill:#ffffff;fill-opacity:1"
         id="path3723" />
      <path
         d="m 424.25406,380.39258 0,-1.20117 q 1.75781,-0.0586 2.08008,-0.23438 0.33691,-0.17578 0.4541,-0.58594 0.16113,-0.62988 0.16113,-3.79394 l 0,-8.77442 q 0,-3.58886 -0.0439,-4.01367 l -2.09473,0 q -1.58203,0 -2.7832,0.10254 -0.4834,0.0439 -0.55664,0.11719 -0.10254,0.0879 -0.17579,0.51269 -0.19043,1.02539 -0.21972,2.29981 l -1.21582,0 q -0.0586,-3.00293 -0.0732,-3.38379 -0.0439,-0.64453 -0.14649,-1.3916 l 0.13184,-0.14649 q 0.68847,0.0733 1.46484,0.10254 1.25977,0.0439 4.84863,0.0439 l 5.91797,0 q 3.69141,0 4.93653,-0.0439 0.67382,-0.0293 1.3623,-0.10254 l 0.14648,0.14649 q -0.13183,0.89355 -0.16113,1.56738 -0.0147,0.11719 -0.0586,3.20801 l -1.21582,0 q -0.0293,-1.14258 -0.19043,-2.18262 -0.0879,-0.52734 -0.19043,-0.62988 -0.0879,-0.0732 -0.46875,-0.10254 -1.20117,-0.11719 -2.88574,-0.11719 l -2.09473,0 q -0.0439,0.5127 -0.0439,4.01367 l 0,8.77442 q 0,3.16406 0.16114,3.80859 0.10254,0.38086 0.43945,0.57129 0.33691,0.17578 2.09473,0.23438 l 0,1.20117 q -2.8418,-0.13184 -4.79004,-0.13184 -2.08008,0 -4.79004,0.13184 z"
         style="font-style:normal;font-variant:normal;font-weight:bold;font-stretch:normal;font-size:30px;line-height:125%;font-family:Palatino;-inkscape-font-specification:'Palatino, Bold';text-align:start;letter-spacing:10px;writing-mode:lr-tb;text-anchor:start;fill:#ffffff;fill-opacity:1"
         id="path3725" />
      <path
         d="m 446.92496,380.39258 0,-1.21582 q 1.18652,-0.0879 1.40625,-0.14649 0.23437,-0.0732 0.39551,-0.20507 0.16113,-0.14649 0.32226,-0.43946 0.17578,-0.30762 1.01074,-2.24121 0.38086,-0.9082 1.46485,-3.58887 l 3.82324,-9.43359 1.28906,-3.3252 2.08008,0 6.54785,15.29297 0.9082,2.00684 0.58594,1.34766 q 0.14649,0.26367 0.27832,0.38086 0.13184,0.11718 0.29297,0.17578 0.17578,0.0586 0.86426,0.10254 0.21973,0.0293 0.64453,0.0732 l 0,1.21582 -4.07227,-0.0879 -5.1416,0.0879 0,-1.21582 q 1.77246,-0.0732 1.99219,-0.19043 0.23438,-0.13184 0.23438,-0.42481 0,-0.36621 -0.33692,-1.20117 l -1.25976,-3.22265 -7.5293,0 -0.64453,1.75781 q -0.73242,2.02148 -0.73242,2.51953 0,0.35156 0.23437,0.49805 0.35156,0.20507 2.09473,0.26367 l 0,1.21582 -3.38379,-0.0879 -3.36914,0.0879 z m 6.47461,-7.92481 q 1.37695,0.044 3.12011,0.044 1.68457,0 3.01758,-0.044 l -3.13476,-7.55859 -3.00293,7.55859 z"
         style="font-style:normal;font-variant:normal;font-weight:bold;font-stretch:normal;font-size:30px;line-height:125%;font-family:Palatino;-inkscape-font-specification:'Palatino, Bold';text-align:start;letter-spacing:10px;writing-mode:lr-tb;text-anchor:start;fill:#ffffff;fill-opacity:1"
         id="path3727" />
      <path
         d="m 497.56949,380.39258 0,-1.28906 q 1.3916,-0.0293 1.69922,-0.0879 0.30761,-0.0586 0.4541,-0.16113 0.14648,-0.11719 0.20508,-0.32226 0.14648,-0.43946 0.16113,-2.03614 l 0.0586,-2.91504 0,-6.85546 -0.0586,-2.88575 q -0.0147,-1.62597 -0.16113,-2.06543 -0.0586,-0.20507 -0.20508,-0.30761 -0.13184,-0.11719 -0.43945,-0.17578 -0.30762,-0.0733 -1.71387,-0.10254 l 0,-1.28907 q 2.40234,0.0879 5.06836,0.0879 2.38769,0 4.2334,-0.0879 l 0,1.28907 q -1.56739,0.0586 -1.84571,0.13183 -0.27832,0.0586 -0.3955,0.20508 -0.11719,0.14648 -0.17579,1.02539 -0.13183,1.49414 -0.13183,4.30664 l 0,1.68457 q 1.05469,0.0879 4.42383,0.0879 4.24804,0 5.24414,-0.0879 l 0,-1.68457 q 0,-2.27051 -0.0293,-2.91504 -0.11719,-1.94824 -0.17578,-2.19726 -0.0439,-0.17578 -0.14649,-0.26367 -0.0879,-0.10254 -0.35156,-0.16114 -0.24902,-0.0732 -1.83105,-0.13183 l 0,-1.28907 q 1.8457,0.0879 4.2334,0.0879 2.66601,0 5.06836,-0.0879 l 0,1.28907 q -1.39161,0.0293 -1.69922,0.0879 -0.30762,0.0586 -0.45411,0.17578 -0.14648,0.10254 -0.20507,0.30762 -0.14649,0.4541 -0.16114,2.03613 l -0.0586,2.92969 0,6.85546 0.0586,2.8711 q 0.0146,1.64062 0.14649,2.06543 0.0732,0.20508 0.20508,0.32226 0.14648,0.11719 0.4541,0.17578 0.30762,0.0586 1.71387,0.0879 l 0,1.28906 q -2.40235,-0.0879 -5.06836,-0.0879 -2.3877,0 -4.2334,0.0879 l 0,-1.28906 q 1.56738,-0.0586 1.8457,-0.11719 0.27832,-0.0732 0.39551,-0.21973 0.11719,-0.14648 0.17578,-1.02539 0.11719,-1.49414 0.11719,-4.30664 l 0,-3.06152 q -0.73242,-0.10254 -4.2627,-0.10254 -3.38379,0 -4.51172,0.0293 -0.4541,0.0147 -0.89355,0.0732 l 0,3.06152 q 0,2.28516 0.0439,2.91504 0.11719,1.94824 0.17578,2.21191 0.0439,0.16114 0.13184,0.26368 0.10254,0.0879 0.35156,0.16113 0.26368,0.0586 1.84571,0.11719 l 0,1.28906 q -1.84571,-0.0879 -4.2334,-0.0879 -2.66602,0 -5.06836,0.0879 z"
         style="font-style:normal;font-variant:normal;font-weight:bold;font-stretch:normal;font-size:30px;line-height:125%;font-family:Palatino;-inkscape-font-specification:'Palatino, Bold';text-align:start;letter-spacing:10px;writing-mode:lr-tb;text-anchor:start;fill:#ffffff;fill-opacity:1"
         id="path3729" />
      <path
         d="m 532.35464,361.11523 0,-1.21582 4.76075,0.0879 1.97754,-0.0293 1.97754,-0.0439 0.54199,-0.0147 0,1.21582 q -1.58203,0 -2.00684,0.27832 -0.21973,0.13184 -0.29297,0.5127 -0.20508,0.9082 -0.20508,3.99902 l 0,3.39844 0.0146,1.71387 q 0,2.68066 0.0586,3.31054 0.13183,1.37696 0.68847,2.22657 0.55664,0.83496 1.69922,1.3623 1.15723,0.5127 2.92969,0.5127 2.03613,0 3.2373,-0.68848 1.21582,-0.70312 1.72852,-1.81641 0.5127,-1.11328 0.5127,-4.23339 l 0,-2.98829 q 0,-3.86718 -0.0146,-4.71679 -0.0439,-1.84571 -0.20508,-2.22656 -0.10254,-0.23438 -0.33692,-0.35157 -0.48339,-0.24902 -2.10937,-0.29297 l 0,-1.21582 q 2.65137,0.10254 3.14941,0.10254 0.13184,0 0.39551,-0.0147 l 3.25195,-0.0879 0,1.21582 q -1.3623,0 -1.71386,0.21973 -0.17578,0.11719 -0.29297,0.4541 -0.10254,0.32227 -0.20508,2.95899 -0.10254,2.63672 -0.10254,4.16015 l 0,3.44239 q 0,1.31836 -0.19043,2.72461 -0.19043,1.40625 -0.77637,2.40234 -0.57128,0.99609 -1.62597,1.80176 -1.05469,0.80566 -2.50488,1.21582 -1.4502,0.41015 -3.3545,0.41015 -2.22656,0 -4.16015,-0.60058 -1.40625,-0.43946 -2.29981,-1.17188 -0.89355,-0.74707 -1.3623,-1.65527 -0.46875,-0.92285 -0.57129,-1.77246 -0.0732,-0.52735 -0.0732,-2.8418 l 0.0146,-2.8125 0,-3.7207 q 0,-2.05078 -0.0879,-3.69141 -0.0439,-0.64453 -0.17578,-0.9375 -0.0732,-0.16113 -0.36621,-0.38086 l -1.9043,-0.20508 z"
         style="font-style:normal;font-variant:normal;font-weight:bold;font-stretch:normal;font-size:30px;line-height:125%;font-family:Palatino;-inkscape-font-specification:'Palatino, Bold';text-align:start;letter-spacing:10px;writing-mode:lr-tb;text-anchor:start;fill:#ffffff;fill-opacity:1"
         id="path3731" />
      <path
         d="m 567.21304,380.39258 0,-0.68848 q 0.77637,-0.4541 1.28907,-0.9082 0.0879,-0.71778 0.11718,-1.75781 0.0586,-2.13868 0.0586,-7.77832 0,-1.50879 -0.0733,-4.70215 -0.0439,-2.46094 -0.16113,-2.8125 -0.0732,-0.21973 -0.21972,-0.30762 -0.30762,-0.20508 -2.19727,-0.32227 l 0,-1.21582 q 0.32227,0 0.67383,0.0147 l 2.02148,0.0586 q 0.9961,0.0146 2.47559,0.0146 1.46484,0 2.2998,-0.0293 2.10938,-0.0879 2.75391,-0.0879 2.41699,0 3.7207,0.49804 1.31836,0.49805 1.91895,1.4502 0.61523,0.9375 0.61523,2.10937 0,1.25977 -0.70312,2.34375 -0.68848,1.08399 -1.77246,1.68457 -0.64454,0.36622 -2.8711,0.98145 2.66602,0.32227 3.70606,0.84961 1.05468,0.52734 1.68457,1.65527 0.62988,1.11328 0.62988,2.49024 0,1.45019 -0.64453,2.63672 -0.64453,1.17187 -1.66992,2.00683 -1.01075,0.83496 -2.3291,1.33301 -1.31836,0.4834 -3.2959,0.4834 l -4.92188,-0.0879 q -1.18652,0 -3.10547,0.0879 z m 5.55176,-12.04102 0.84961,0.0147 q 0.99609,0 1.8457,-0.16113 0.84961,-0.16113 1.37696,-0.55664 0.52734,-0.41016 0.8789,-1.20117 0.36621,-0.80567 0.36621,-1.84571 0,-1.05469 -0.41015,-1.78711 -0.41016,-0.74707 -1.06934,-1.05468 -0.65918,-0.32227 -1.97754,-0.32227 -0.95215,0 -1.72851,0.11719 -0.0879,1.05468 -0.10254,2.43164 l -0.0293,2.27051 0,2.09472 z m 0.0586,10.40039 q 0.4834,0.10254 1.81641,0.10254 1.81641,0 2.92969,-1.18652 1.12793,-1.20117 1.12793,-3.42774 0,-1.58203 -0.58594,-2.56347 -0.58594,-0.98145 -1.55273,-1.37696 -0.9668,-0.41015 -2.66602,-0.41015 -0.60059,0 -1.12793,0.0586 l 0,6.67969 0.0293,1.74316 q 0,0.0733 0.0293,0.38086 z"
         style="font-style:normal;font-variant:normal;font-weight:bold;font-stretch:normal;font-size:30px;line-height:125%;font-family:Palatino;-inkscape-font-specification:'Palatino, Bold';text-align:start;letter-spacing:10px;writing-mode:lr-tb;text-anchor:start;fill:#ffffff;fill-opacity:1"
         id="path3733" />
    </g>
  </g>
</svg>
