<?xml version="1.0" encoding="UTF-8" standalone="no"?>
<!-- Created with Inkscape (http://www.inkscape.org/) -->

<svg
   xmlns:dc="http://purl.org/dc/elements/1.1/"
   xmlns:cc="http://creativecommons.org/ns#"
   xmlns:rdf="http://www.w3.org/1999/02/22-rdf-syntax-ns#"
   xmlns:svg="http://www.w3.org/2000/svg"
   xmlns="http://www.w3.org/2000/svg"
   xmlns:sodipodi="http://sodipodi.sourceforge.net/DTD/sodipodi-0.dtd"
   xmlns:inkscape="http://www.inkscape.org/namespaces/inkscape"
   width="33.26075mm"
   height="35.207272mm"
   viewBox="0 0 117.85305 124.75017"
   id="svg2"
   version="1.1"
   inkscape:version="0.91 r13725"
   style="enable-background:new"
   sodipodi:docname="TDH-white-vector-justswirl.svg">
  <defs
     id="defs4" />
  <sodipodi:namedview
     id="base"
     pagecolor="#ffffff"
     bordercolor="#666666"
     borderopacity="1.0"
     inkscape:pageopacity="0.0"
     inkscape:pageshadow="2"
     inkscape:zoom="5.8187855"
     inkscape:cx="58.75467"
     inkscape:cy="42.774304"
     inkscape:document-units="px"
     inkscape:current-layer="layer2"
     showgrid="false"
     fit-margin-top="5"
     fit-margin-left="5"
     fit-margin-right="5"
     fit-margin-bottom="5"
     inkscape:window-width="1846"
     inkscape:window-height="1156"
     inkscape:window-x="74"
     inkscape:window-y="0"
     inkscape:window-maximized="1" />
  <metadata
     id="metadata7">
    <rdf:RDF>
      <cc:Work
         rdf:about="">
        <dc:format>image/svg+xml</dc:format>
        <dc:type
           rdf:resource="http://purl.org/dc/dcmitype/StillImage" />
        <dc:title></dc:title>
      </cc:Work>
    </rdf:RDF>
  </metadata>
  <g
     inkscape:groupmode="layer"
     id="layer2"
     inkscape:label="Layer 2"
     style="display:inline"
     transform="translate(-520.08355,-234.15738)">
    <g
       style="isolation:isolate;fill:#ffffff;fill-opacity:1"
       id="g3526"
       transform="matrix(1.7423674,0,0,1.7423674,206.64643,180.558)">
      <path
         id="path3518"
         stroke="rgba(0,0,0,0)"
         d="m 208.60219,62.154737 -0.005,0.04044 c 0,0.0072 7.2e-4,0.01228 0.002,0.01011 0.001,0 0.001,-0.0022 0.004,-0.0065 -0.004,-0.0079 0.004,-0.01444 0.052,0.0094 0.0729,0.03394 0.16466,0.07727 0.27299,0.144437 0.0989,0.05416 0.27154,0.193545 0.2181,0.352426 -0.0296,0.14227 -0.10039,0.27443 -0.20655,0.415256 l -0.0802,0.10255 c -0.013,0.13216 -0.1141,-0.324261 0.21232,0.909953 0.0563,0.216655 0.11483,0.4297 0.14949,0.652855 l 0.0253,0.166824 c -7.2e-4,0.361093 0.0563,-2.760912 0.0318,-1.444369 l -7.2e-4,-0.0022 -10e-4,-0.0094 c -0.003,-0.013 -0.004,-0.026 -0.004,-0.04044 -0.001,-0.02817 7.2e-4,-0.0585 0.005,-0.09172 0.0195,-0.129271 0.0628,-0.302595 0.19427,-0.494696 0.0664,-0.08811 0.16971,-0.204378 0.33942,-0.198601 0.16971,0.01589 0.31848,0.158881 0.45281,0.305484 0.26576,0.307651 0.50842,0.712796 0.75035,1.19666 0.11843,0.242654 0.23832,0.506251 0.34087,0.795125 0.0253,0.07366 0.0484,0.147326 0.0686,0.223155 -0.0419,0.03105 -0.10038,0.04911 -0.1531,0.0715 -0.10833,0.04044 -0.22099,0.07294 -0.33942,0.100383 -0.47376,0.106884 -1.02911,0.144437 -1.64586,0.05777 -0.3062,-0.0455 -0.63118,-0.124216 -0.9345,-0.283096 -0.30981,-0.148048 -0.56113,-0.444144 -0.57269,-0.809569 -0.10183,-0.702686 0.16538,-1.554142 0.85362,-2.168721 0.18127,-0.157436 0.3452,-0.285985 0.57919,-0.396479 l 0.24265,-0.122049 c 0.0628,-0.03394 0.13288,-0.05705 0.20005,-0.08522 0.13577,-0.04983 0.27443,-0.09461 0.4167,-0.127827 0.5698,-0.132159 1.16993,-0.144437 1.75273,-0.03394 1.16704,0.215211 2.26187,0.959061 2.8945,2.065448 0.64346,1.102053 0.77346,2.544256 0.40587,3.883186 -0.36832,1.344708 -1.28332,2.609975 -2.5948,3.397157 -1.30715,0.792236 -2.96961,1.067389 -4.61329,0.809569 -1.64658,-0.259265 -3.28593,-1.111442 -4.51508,-2.500203 -1.23493,-1.383706 -2.00839,-3.294607 -2.03872,-5.495825 -0.0542,-2.173054 0.72218,-4.694922 2.54641,-6.693929 0.2246,-0.250599 0.46509,-0.484586 0.69041,-0.691853 0.21376,-0.195712 0.43836,-0.381314 0.67018,-0.56186 0.46725,-0.355315 0.96989,-0.673798 1.50431,-0.948228 0.53297,-0.275153 1.09699,-0.504807 1.68123,-0.683909 0.59147,-0.183435 1.19016,-0.296096 1.75851,-0.376258 2.32687,-0.325706 4.87184,0.05777 7.1366,1.214714 2.26548,1.143218 4.26665,3.059174 5.49435,5.523268 0.61891,1.210381 1.03633,2.612864 1.2241,3.938073 0.19788,1.318709 0.21521,2.695193 0.0426,4.06951 -0.34159,2.751523 -1.49419,5.484992 -3.37331,7.749041 -1.86828,2.265493 -4.49919,4.056511 -7.50924,4.919521 -1.53608,0.434033 -2.99777,0.626857 -4.52374,0.655022 -1.52308,0.02311 -3.0736,-0.145159 -4.5938,-0.517807 -3.04255,-0.738794 -5.96088,-2.301602 -8.33613,-4.575761 -2.37598,-2.264049 -4.19732,-5.26617 -5.06394,-8.607719 -1.65018,-6.550936 -0.0419,-13.16037 3.46431,-17.988896 1.74334,-2.422207 3.93661,-4.417603 6.36097,-5.885805 2.42364,-1.473256 5.07476,-2.411374 7.70711,-2.838185 5.12388,-0.82329 10.12498,-0.01733 14.3093,1.839404 4.19732,1.855292 7.58146,4.716588 9.97766,7.938976 2.40847,3.228165 3.83478,6.810923 4.43997,10.238411 0.58135,3.441932 0.4723,6.610155 -0.0274,9.526337 -1.02405,5.830196 -3.65857,10.288964 -6.43535,13.399413 -2.80495,3.133559 -5.77962,4.989574 -8.31014,6.127737 -2.55074,1.132385 -4.69418,1.562085 -6.32847,1.752742 -1.64224,0.178379 -2.79629,0.116271 -3.53725,0.05055 -0.73951,-0.06861 -1.07171,-0.150937 -1.07099,-0.145882 -0.001,-0.0029 0.23182,-0.09027 0.83195,-0.23471 0.60013,-0.149492 1.56641,-0.348093 3.02594,-0.716407 1.45519,-0.378425 3.41592,-0.913563 5.93272,-2.053171 2.49369,-1.156217 5.60485,-2.91907 8.83372,-6.197788 -0.003,-0.0043 -0.63985,0.6478 -1.58086,1.388039 -0.9345,0.747461 -2.17593,1.557752 -3.24765,2.04956 -1.07027,0.499029 -1.94555,0.706296 -2.13332,0.478808 -0.1986,-0.24121 0.32715,-0.847845 1.7614,-2.361544 2.85551,-3.086617 4.38147,-6.445497 5.38747,-9.423787 1.00167,-3.012232 1.53103,-5.700203 2.26332,-8.329677 0.35603,-1.317987 0.59724,-2.911126 0.59146,-4.510765 0,-1.610472 -0.2477,-3.272941 -0.65646,-4.732476 -0.80306,-2.940735 -2.18676,-4.987407 -2.16582,-4.983073 -0.002,-7.23e-4 0.32498,0.662243 0.68968,1.663191 0.36254,1.003114 0.73807,2.345655 0.92078,3.658587 0.40226,2.648973 -0.0217,5.028571 -0.31776,4.697811 -0.15165,-0.157436 -0.30042,-0.272264 -0.51491,-0.644189 -0.22243,-0.369036 -0.49831,-0.999503 -1.05655,-2.119612 -0.57775,-1.102776 -1.41475,-2.739246 -3.1971,-4.760641 -0.89695,-0.998781 -2.04088,-2.084224 -3.55024,-3.112615 -1.50647,-1.02478 -3.38559,-1.997563 -5.69007,-2.625864 -3.03099,-0.785736 -4.83716,-0.951117 -5.86627,-1.233491 -1.03417,-0.245543 -1.28693,-0.504085 -1.28476,-0.511307 -0.0123,0.03105 -1.72241,-0.61819 -4.35114,-0.470142 -1.30426,0.07366 -2.82084,0.371203 -4.30059,0.977116 -1.4812,0.596525 -2.90823,1.506477 -4.0305,2.583977 0.002,0.0058 0.86662,-0.575582 2.07122,-1.064501 1.19882,-0.505529 2.72768,-0.858677 3.88822,-0.827623 1.16705,0.01806 1.94484,0.361814 1.87551,0.914286 -0.0318,0.278763 -0.26504,0.618912 -0.73085,1.063778 -0.46292,0.451365 -1.1591,1.010336 -2.05822,1.844459 -1.79895,1.679079 -2.91905,3.569036 -3.60151,5.263281 -0.68247,1.705801 -0.94173,3.231777 -1.05006,4.465268 -0.10327,1.238547 -0.0578,2.193997 -0.0397,2.867073 0.0209,0.6348 0.0238,1.000948 -0.0621,1.115053 0.12999,0.05633 0.30548,0.379869 0.60013,0.935229 0.29682,0.553916 0.71351,1.346874 1.41981,2.271271 0.70629,0.916452 1.71518,1.976619 3.18698,2.867795 1.46098,0.885398 3.40364,1.588084 5.6944,1.567862 0.57052,-0.0079 1.06594,-0.039 1.49419,-0.06716 0.40659,-0.02961 0.72652,-0.04622 1.00889,-0.05778 0.55969,-0.01444 0.92295,0.03322 1.14321,0.198601 0.43765,0.314873 0.27443,1.107831 -0.45353,1.981675 -0.70557,0.878176 -2.05388,1.700745 -3.27436,2.163665 -1.21832,0.474475 -2.27199,0.615301 -2.26693,0.61819 1.57869,0.06427 3.26859,-0.270097 4.73823,-0.909953 1.4848,-0.635522 2.69229,-1.609749 3.49536,-2.596976 0.81462,-0.985059 1.25154,-1.947731 1.48191,-2.629474 0.22966,-0.684631 0.27876,-1.094832 0.28526,-1.092665 -0.013,0 -0.11699,-0.330761 0.0246,-1.237102 0.0614,-0.454977 0.1726,-1.05439 0.2672,-1.850959 0.0859,-0.797292 0.15961,-1.793907 -0.0108,-3.051953 -0.24698,-1.781629 -1.16921,-2.953735 -2.20554,-3.703362 -1.04355,-0.736629 -2.13838,-0.989393 -3.05555,-0.993726 -0.9995,0.0022 -1.53752,0.189934 -2.01849,0.430422 -0.21883,0.111938 -0.46653,0.285985 -0.57558,0.369036 l -0.1661,0.104717 c -0.36471,0.281652 -0.62252,0.457865 -0.91356,0.599413 -0.13216,0.08016 -0.47881,0.04044 -0.75757,-0.356759 -0.27876,-0.382758 -0.41453,-1.194493 -0.0116,-2.155721 0.45353,-1.023336 1.46025,-2.010562 2.36298,-2.518258 0.91211,-0.527917 1.65813,-0.721462 1.65018,-0.725795 0.004,0.0036 -0.61385,0.09461 -1.53535,0.457865 -0.90706,0.361092 -2.09938,1.130219 -2.89812,2.292214 -0.76767,1.099165 -1.01177,2.456149 -0.68607,3.401489 0.30621,0.959783 1.09844,1.440036 1.81918,1.275378 0.71712,-0.14877 1.18437,-0.538027 1.42125,-0.855066 0.24265,-0.32715 0.28887,-0.565471 0.32137,-0.704853 0.0231,-0.138659 0.0599,-0.215211 0.0224,-0.311983 -0.0253,-0.08955 -0.24193,-0.152381 -0.34809,0.03322 -0.10617,0.172602 0.0152,0.4232 -0.0181,0.698353 -0.0181,0.137215 -0.0845,0.283096 -0.21954,0.366147 -0.1466,0.09388 -0.30621,0.05705 -0.34593,-0.105439 -0.0534,-0.153825 -0.002,-0.430422 0.22388,-0.692575 0.21954,-0.262153 0.61602,-0.484586 1.05005,-0.562582 0.88323,-0.176935 1.74262,0.158159 1.72385,0.151659 -0.98434,-0.34376 -1.90151,-0.233265 -2.45759,0.136493 -0.56546,0.369036 -0.75901,0.922952 -0.69184,1.325209 0.013,0.207267 0.1466,0.379869 0.34809,0.439088 0.18849,0.06788 0.38203,0.07944 0.55391,0.07294 0.34592,-0.01733 0.61963,-0.102551 0.82906,-0.213767 0.0498,-0.03033 0.10689,-0.05705 0.14011,-0.09966 -0.0274,-0.08738 -0.0607,-0.168269 -0.0939,-0.244099 -0.0664,-0.152381 -0.13432,-0.285263 -0.20004,-0.403701 -0.13216,-0.233266 -0.24988,-0.415978 -0.38492,-0.527917 -0.16394,-0.131438 -0.26649,0.03539 -0.2896,0.09461 -0.0354,0.078 -0.0469,0.144437 -0.0426,0.20149 l 0.001,0.01011 0,0.0022 0.0159,2.477815 c -0.0144,-0.115549 -0.0332,-0.228932 -0.0563,-0.342315 -0.10472,-0.444144 -0.20655,-0.894787 -0.34954,-1.32232 l -0.17116,-0.55536 -0.16899,-0.486753 c -0.0209,-0.07294 -0.007,-0.02311 -0.004,-0.04622 l 0.0816,-0.06716 c 0.0419,-0.04405 0.0968,-0.08377 0.0896,-0.140103 -0.0592,-0.0845 -0.16827,-0.08161 -0.19644,-0.05561 0.0419,0.135049 0.12783,0.208712 0.12855,0.198601 z"
         inkscape:connector-curvature="0"
         style="fill:#ffffff;fill-opacity:1;stroke-width:1;stroke-linecap:square;stroke-linejoin:miter" />
    </g>
  </g>
</svg>
