<?xml version="1.0" standalone="no"?>
<!DOCTYPE svg PUBLIC "-//W3C//DTD SVG 20010904//EN"
 "http://www.w3.org/TR/2001/REC-SVG-20010904/DTD/svg10.dtd">
<svg version="1.0" xmlns="http://www.w3.org/2000/svg"
 width="237.000000pt" height="237.000000pt" viewBox="0 0 237.000000 237.000000"
 preserveAspectRatio="xMidYMid meet">
<metadata>
Created by potrace 1.11, written by Peter Selinger 2001-2013
</metadata>
<g transform="translate(0.000000,237.000000) scale(0.100000,-0.100000)"
fill="#000000" stroke="none">
<path d="M1072 2319 c-313 -40 -602 -214 -808 -484 -281 -369 -280 -932 3
-1310 291 -389 779 -558 1258 -434 289 74 574 309 715 589 150 300 158 682 20
987 -97 215 -313 438 -528 547 -183 93 -441 134 -660 105z m383 -158 c325 -83
614 -377 705 -716 28 -103 37 -300 20 -416 -49 -341 -283 -649 -584 -769 -134
-54 -195 -64 -376 -64 -182 1 -250 14 -391 74 -172 73 -373 250 -473 418 -163
273 -179 638 -42 927 143 301 426 513 754 565 90 14 295 4 387 -19z"/>
<path d="M1189 1954 c-13 -7 -34 -19 -46 -25 -26 -14 -24 -9 -197 -411 -113
-261 -136 -323 -131 -350 6 -37 -2 -54 -28 -59 -14 -3 -46 -66 -118 -233 -97
-224 -108 -256 -90 -256 5 0 11 -9 13 -20 3 -18 41 2 298 151 162 94 298 176
301 182 4 5 121 -57 270 -144 145 -84 288 -161 318 -171 30 -10 60 -23 67 -29
11 -9 14 -7 14 7 0 23 -566 1334 -583 1351 -19 19 -62 22 -88 7z"/>
</g>
</svg>
